#!OML:ASF E:\Mandelcareful walks\Project 1\Capture day 1\Session 1\Subject1.ASF
:FULLY-SPECIFIED
:DEGREES
493
root 6.62211 15.6823 -1.70143 -87.6888 -83.7781 93.7276
lowerback 30.9696 1.9015 -1.87564
upperback 7.02502 0.942851 -1.79909
thorax -9.04554 0.183596 -1.25865
lowerneck -27.5547 9.19826 2.97527
upperneck 27.167 15.1868 -10.0781
head 15.2295 5.16771 -1.43125
rclavicle -2.38542e-014 1.47101e-014
rhumerus -20.4319 -2.40778 -85.8187
rradius 77.2603
rwrist -13.8264
rhand -13.463 -28.0291
rfingers 7.12502
rthumb 12.6468 -57.6262
lclavicle -2.38542e-014 1.47101e-014
lhumerus -15.4048 -16.8439 87.753
lradius 72.1522
lwrist 10.1232
lhand -22.6112 -12.9908
lfingers 7.12502
lthumb 3.81858 16.9547
rfemur -28.2394 -12.3816 3.02193
rtibia 51.6762
rfoot -22.4564 -7.89844
rtoes -8.22227
lfemur -36.0864 11.5813 -17.0397
ltibia 52.568
lfoot -16.3883 1.95105
ltoes -6.89336
494
root 6.6353 15.6786 -1.74441 -84.975 -83.5605 91.1139
lowerback 30.8966 1.88402 -1.92687
upperback 7.0589 0.902458 -1.85501
thorax -8.97205 0.165789 -1.27522
lowerneck -27.5774 9.31405 3.15136
upperneck 27.4464 15.3909 -10.2918
head 15.4244 5.21818 -1.50203
rclavicle 1.19271e-015 3.97569e-016
rhumerus -20.3602 -2.43694 -85.8382
rradius 77.276
rwrist -13.8408
rhand -13.3982 -28.039
rfingers 7.12502
rthumb 12.7093 -57.6322
lclavicle 1.19271e-015 3.97569e-016
lhumerus -15.2553 -16.7427 87.6581
lradius 72.2474
lwrist 10.4059
lhand -20.4837 -13.7699
lfingers 7.12502
lthumb 5.87288 16.1287
rfemur -28.4668 -12.648 2.96486
rtibia 51.9903
rfoot -22.5916 -8.00006
rtoes -8.29454
lfemur -36.2309 11.5098 -17.1735
ltibia 52.4219
lfoot -16.1648 1.73251
ltoes -6.91117
495
root 6.64352 15.6745 -1.7876 -83.8838 -83.2203 90.0279
lowerback 30.8547 1.96275 -2.09053
upperback 7.14989 0.934872 -1.96604
thorax -8.84839 0.180035 -1.31562
lowerneck -27.6128 9.36756 3.11379
upperneck 27.7708 15.4836 -10.1626
head 15.5699 5.24972 -1.42424
rclavicle -2.0276e-014 1.98785e-014
rhumerus -20.2873 -2.56079 -85.8491
rradius 77.3395
rwrist -13.7507
rhand -13.2222 -27.9413
rfingers 7.12502
rthumb 12.879 -57.524
lclavicle -2.0276e-014 1.98785e-014
lhumerus -14.9128 -16.7334 87.5412
lradius 72.1499
lwrist 11.0594
lhand -19.8141 -14.4033
lfingers 7.12502
lthumb 6.51933 15.4764
rfemur -28.6183 -12.7872 2.75681
rtibia 52.2771
rfoot -22.5886 -8.09458
rtoes -8.89198
lfemur -36.1925 11.5246 -17.4202
ltibia 52.2076
lfoot -15.9936 1.58454
ltoes -7.41833
496
root 6.63963 15.6707 -1.85408 -85.723 -83.5033 91.7228
lowerback 30.9025 2.22192 -2.18332
upperback 7.19506 1.24289 -1.83048
thorax -8.82199 0.323429 -1.22338
lowerneck -27.3568 9.47565 3.21044
upperneck 27.7575 15.6767 -10.3964
head 15.567 5.31565 -1.49925
rclavicle -1.15295e-014 -3.10104e-014
rhumerus -20.3629 -2.61151 -85.8189
rradius 77.4065
rwrist -13.7667
rhand -13.1538 -27.9146
rfingers 7.12502
rthumb 12.945 -57.493
lclavicle -1.15295e-014 -3.10104e-014
lhumerus -14.8371 -16.5649 87.5631
lradius 72.1098
lwrist 11.2459
lhand -21.0138 -14.4882
lfingers 7.12502
lthumb 5.36098 15.424
rfemur -28.6782 -12.1113 3.37258
rtibia 52.4465
rfoot -22.6454 -8.56265
rtoes -9.16503
lfemur -35.9731 11.9714 -16.8101
ltibia 52.0036
lfoot -15.7718 1.31835
ltoes -7.85447
497
root 6.63201 15.6764 -1.8872 -83.9062 -83.2976 89.7855
lowerback 30.9308 2.17029 -2.15208
upperback 7.25486 1.17591 -1.88984
thorax -8.7654 0.289329 -1.28298
lowerneck -27.2992 9.62809 3.2954
upperneck 27.9587 15.915 -10.4659
head 15.6879 5.40137 -1.49006
rclavicle 2.18663e-014 3.97569e-014
rhumerus -20.3942 -2.52433 -85.7945
rradius 77.547
rwrist -13.8705
rhand -13.1077 -28.6007
rfingers 7.12502
rthumb 12.9894 -58.1763
lclavicle 2.18663e-014 3.97569e-014
lhumerus -14.9144 -16.2827 87.6165
lradius 72.2477
lwrist 11.1372
lhand -21.8768 -14.2222
lfingers 7.12502
lthumb 4.52774 15.7094
rfemur -28.4179 -12.4209 3.20528
rtibia 52.5347
rfoot -22.7543 -8.41014
rtoes -9.06967
lfemur -35.716 11.8001 -16.9254
ltibia 51.806
lfoot -15.6986 1.34381
ltoes -8.2565
498
root 6.62113 15.6869 -1.91497 -82.5642 -83.2194 88.3555
lowerback 30.8669 2.07564 -1.95942
upperback 7.32966 1.10895 -1.94733
thorax -8.64469 0.253069 -1.43132
lowerneck -27.3123 9.83147 3.37596
upperneck 28.288 16.2188 -10.4494
head 15.8791 5.51454 -1.42779
rclavicle -3.97569e-015 3.45885e-014
rhumerus -20.3701 -2.34163 -85.811
rradius 77.715
rwrist -13.9911
rhand -13.2084 -29.2895
rfingers 7.12502
rthumb 12.8923 -58.8713
lclavicle -3.97569e-015 3.45885e-014
lhumerus -14.9193 -16.0195 87.6146
lradius 72.3426
lwrist 11.1237
lhand -21.8105 -14.0015
lfingers 7.12502
lthumb 4.59175 15.9287
rfemur -28.1704 -12.7586 3.15902
rtibia 52.5825
rfoot -22.884 -8.1749
rtoes -8.7107
lfemur -35.4554 11.6786 -16.9341
ltibia 51.6471
lfoot -15.6795 1.38316
ltoes -8.61434
499
root 6.63459 15.6851 -1.96506 -78.7232 -83.1642 84.6225
lowerback 30.8595 1.93578 -1.8618
upperback 7.28648 0.969276 -1.95293
thorax -8.69014 0.189797 -1.44334
lowerneck -27.0952 9.99952 3.63213
upperneck 28.4479 16.4171 -10.5707
head 15.9691 5.60448 -1.48074
rclavicle 7.55382e-015 1.15295e-014
rhumerus -20.3081 -2.2358 -85.8978
rradius 77.6847
rwrist -14.0087
rhand -13.2111 -29.1155
rfingers 7.12502
rthumb 12.8897 -58.6975
lclavicle 7.55382e-015 1.15295e-014
lhumerus -14.8753 -15.8404 87.5459
lradius 72.3957
lwrist 11.236
lhand -21.7801 -13.9091
lfingers 7.12502
lthumb 4.62107 16.0205
rfemur -28.2648 -13.1297 3.3619
rtibia 52.7139
rfoot -23.0155 -8.24181
rtoes -8.36509
lfemur -35.6622 11.4541 -16.8065
ltibia 51.5045
lfoot -15.43 1.18375
ltoes -8.46574
500
root 6.65071 15.6823 -2.01736 -75.3081 -82.9806 81.3185
lowerback 30.8811 1.85066 -1.8477
upperback 7.23415 0.86729 -1.99519
thorax -8.76052 0.145096 -1.46325
lowerneck -26.9497 10.1447 3.83494
upperneck 28.5891 16.5928 -10.6559
head 16.0543 5.68325 -1.51287
rclavicle 1.66979e-014 -2.78299e-015
rhumerus -20.2979 -2.27247 -85.9678
rradius 77.6579
rwrist -13.9479
rhand -12.8882 -29.1585
rfingers 7.12502
rthumb 13.201 -58.7206
lclavicle 1.66979e-014 -2.78299e-015
lhumerus -14.8776 -15.7392 87.5367
lradius 72.501
lwrist 11.3266
lhand -21.9584 -13.9243
lfingers 7.12502
lthumb 4.4489 16.009
rfemur -28.4214 -13.4216 3.47113
rtibia 52.8866
rfoot -23.1584 -8.36063
rtoes -8.23041
lfemur -35.9039 11.1612 -16.7636
ltibia 51.3344
lfoot -15.0923 1.07773
ltoes -7.90213
501
root 6.66677 15.683 -2.06833 -72.012 -82.9136 78.1013
lowerback 30.9325 1.77275 -1.69098
upperback 7.17563 0.824396 -1.98111
thorax -8.85016 0.126127 -1.52459
lowerneck -26.826 10.2915 4.00276
upperneck 28.7848 16.818 -10.8038
head 16.1829 5.76326 -1.55425
rclavicle -1.63003e-014 -7.95139e-015
rhumerus -20.3741 -2.33393 -85.9503
rradius 77.7428
rwrist -14.015
rhand -12.5828 -29.5026
rfingers 7.12502
rthumb 13.4953 -59.0453
lclavicle -1.63003e-014 -7.95139e-015
lhumerus -14.9491 -15.6458 87.6494
lradius 72.6064
lwrist 11.2972
lhand -22.1449 -14.0295
lfingers 7.12502
lthumb 4.26889 15.9074
rfemur -28.5447 -13.6958 3.73137
rtibia 53.0966
rfoot -23.2961 -8.46032
rtoes -7.89623
lfemur -36.0713 10.9429 -16.5937
ltibia 51.1227
lfoot -14.736 1.02077
ltoes -8.07117
502
root 6.6583 15.6859 -2.12609 -74.0257 -83.0026 79.9765
lowerback 30.9469 2.06582 -1.88101
upperback 7.25815 1.13122 -1.95051
thorax -8.76244 0.268649 -1.49275
lowerneck -26.6988 10.2979 3.80984
upperneck 28.8643 16.836 -10.5718
head 16.1402 5.78662 -1.42858
rclavicle 1.98785e-014 -1.94809e-014
rhumerus -20.3373 -2.50395 -85.9206
rradius 77.7568
rwrist -14.1693
rhand -12.3685 -29.5056
rfingers 7.12502
rthumb 13.7019 -59.0345
lclavicle 1.98785e-014 -1.94809e-014
lhumerus -14.9213 -15.6019 87.7601
lradius 72.6916
lwrist 11.1865
lhand -22.1126 -14.1286
lfingers 7.12502
lthumb 4.30007 15.8077
rfemur -28.5984 -13.1851 4.0251
rtibia 53.2492
rfoot -23.4157 -8.64706
rtoes -6.94066
lfemur -35.7319 11.2764 -16.3051
ltibia 50.8393
lfoot -14.5972 0.952842
ltoes -8.7486
503
root 6.66559 15.6885 -2.16633 -72.0262 -82.54 78.0377
lowerback 30.933 2.01827 -2.02727
upperback 7.2749 1.01402 -2.06838
thorax -8.73855 0.216095 -1.49739
lowerneck -26.6766 10.4352 3.94428
upperneck 29.0348 17.0205 -10.6097
head 16.2555 5.86086 -1.42361
rclavicle -1.70955e-014 1.31198e-014
rhumerus -20.226 -2.57877 -85.9829
rradius 77.6766
rwrist -14.2333
rhand -12.2362 -29.2849
rfingers 7.12502
rthumb 13.8294 -58.8052
lclavicle -1.70955e-014 1.31198e-014
lhumerus -14.7638 -15.5291 87.7826
lradius 72.629
lwrist 11.2519
lhand -22.0319 -14.2397
lfingers 7.12502
lthumb 4.37793 15.6951
rfemur -28.6405 -13.7252 3.7345
rtibia 53.3758
rfoot -23.4803 -8.5248
rtoes -6.70223
lfemur -35.7248 11.0796 -16.6444
ltibia 50.524
lfoot -14.4106 0.802042
ltoes -9.03427
504
root 6.66339 15.6934 -2.2095 -70.5085 -82.5883 76.453
lowerback 30.921 1.94399 -1.82675
upperback 7.30487 0.981999 -2.07311
thorax -8.69509 0.197774 -1.60595
lowerneck -26.5068 10.6628 4.2608
upperneck 29.1285 17.3172 -10.834
head 16.3612 5.98444 -1.5022
rclavicle 2.26615e-014 -4.8901e-014
rhumerus -20.1929 -2.54228 -86.1291
rradius 77.6171
rwrist -14.1884
rhand -12.3593 -28.7714
rfingers 7.12502
rthumb 13.7107 -58.2997
lclavicle 2.26615e-014 -4.8901e-014
lhumerus -14.7081 -15.4208 87.7467
lradius 72.5421
lwrist 11.3595
lhand -21.9999 -14.5347
lfingers 7.12502
lthumb 4.40883 15.3994
rfemur -28.5436 -13.8915 4.00862
rtibia 53.4638
rfoot -23.5648 -8.64376
rtoes -7.12555
lfemur -35.5055 11.0323 -16.3728
ltibia 50.208
lfoot -14.2478 0.653499
ltoes -9.02055
505
root 6.66029 15.6952 -2.24906 -69.8791 -82.4605 75.7863
lowerback 30.8867 1.93606 -1.777
upperback 7.33659 0.981861 -2.12646
thorax -8.6405 0.196318 -1.69362
lowerneck -26.2833 10.8189 4.49773
upperneck 29.0946 17.5459 -11.1141
head 16.3886 6.07445 -1.60895
rclavicle 4.37326e-015 -9.54166e-015
rhumerus -20.1971 -2.59529 -86.1902
rradius 77.731
rwrist -14.2704
rhand -12.2852 -28.8823
rfingers 7.12502
rthumb 13.7821 -58.4058
lclavicle 4.37326e-015 -9.54166e-015
lhumerus -14.8379 -15.3187 87.8152
lradius 72.7146
lwrist 11.3
lhand -21.9445 -14.6357
lfingers 7.12502
lthumb 4.46233 15.2973
rfemur -28.5073 -14.0382 4.03441
rtibia 53.5807
rfoot -23.5742 -8.69112
rtoes -7.28306
lfemur -35.2672 10.9166 -16.337
ltibia 49.9158
lfoot -14.2062 0.655884
ltoes -9.15413
506
root 6.66388 15.6924 -2.29231 -69.9849 -82.2514 75.883
lowerback 30.8878 1.99975 -1.92442
upperback 7.37473 1.00807 -2.17975
thorax -8.5987 0.209134 -1.67749
lowerneck -26.162 10.9404 4.65102
upperneck 29.1039 17.7249 -11.2809
head 16.4288 6.14469 -1.66369
rclavicle 1.07344e-014 2.8625e-014
rhumerus -20.1206 -2.66462 -86.2099
rradius 77.8059
rwrist -14.4178
rhand -11.9316 -29.4093
rfingers 7.12502
rthumb 14.1229 -58.9093
lclavicle 1.07344e-014 2.8625e-014
lhumerus -14.8727 -15.2074 87.9378
lradius 72.8475
lwrist 11.1872
lhand -22.0292 -14.4784
lfingers 7.12502
lthumb 4.38061 15.4563
rfemur -28.5918 -14.1363 3.97407
rtibia 53.7139
rfoot -23.5727 -8.67664
rtoes -7.09036
lfemur -35.1334 10.8325 -16.4027
ltibia 49.6728
lfoot -14.0661 0.718727
ltoes -9.2979
507
root 6.67402 15.6906 -2.3454 -69.3494 -82.307 75.1995
lowerback 30.98 2.07197 -1.86682
upperback 7.4181 1.11125 -2.1658
thorax -8.59032 0.254601 -1.73456
lowerneck -26.1487 11.0088 4.6265
upperneck 29.2363 17.7922 -11.1042
head 16.4667 6.18917 -1.57094
rclavicle 1.86858e-014 -2.78299e-015
rhumerus -19.9857 -2.82645 -86.2152
rradius 77.7334
rwrist -14.4275
rhand -11.7368 -29.3181
rfingers 7.12502
rthumb 14.3107 -58.805
lclavicle 1.86858e-014 -2.78299e-015
lhumerus -14.7272 -15.2843 87.9952
lradius 72.7617
lwrist 11.0744
lhand -22.1912 -14.4803
lfingers 7.12502
lthumb 4.22416 15.4576
rfemur -28.6874 -14.1072 4.30661
rtibia 53.8653
rfoot -23.6341 -8.79362
rtoes -6.89337
lfemur -35.0644 10.8769 -16.1097
ltibia 49.4538
lfoot -13.7673 0.666413
ltoes -9.23469
